<mxfile host="app.diagrams.net" agent="Mozilla/5.0 (Windows NT 10.0; Win64; x64) AppleWebKit/537.36 (KHTML, like Gecko) Chrome/128.0.0.0 Safari/537.36" version="24.7.7">
  <diagram name="Page-1" id="qaEOYCw8JKXqonhimFET">
    <mxGraphModel dx="4900" dy="2590" grid="1" gridSize="10" guides="1" tooltips="1" connect="1" arrows="1" fold="1" page="1" pageScale="1" pageWidth="1400" pageHeight="850" math="0" shadow="0">
      <root>
        <mxCell id="0" />
        <mxCell id="1" parent="0" />
        <mxCell id="FXATQqvvRLc2y-DLK3iH-1" value="" style="edgeStyle=orthogonalEdgeStyle;rounded=0;orthogonalLoop=1;jettySize=auto;html=1;startArrow=ERmany;startFill=0;strokeWidth=2;endArrow=none;endFill=0;" edge="1" parent="1" target="FXATQqvvRLc2y-DLK3iH-41">
          <mxGeometry relative="1" as="geometry">
            <mxPoint x="285" y="222" as="sourcePoint" />
          </mxGeometry>
        </mxCell>
        <mxCell id="FXATQqvvRLc2y-DLK3iH-2" value="" style="edgeStyle=orthogonalEdgeStyle;rounded=0;orthogonalLoop=1;jettySize=auto;html=1;endArrow=none;endFill=0;startArrow=baseDash;startFill=0;strokeWidth=2;" edge="1" parent="1" target="FXATQqvvRLc2y-DLK3iH-45">
          <mxGeometry relative="1" as="geometry">
            <mxPoint x="397" y="185" as="sourcePoint" />
          </mxGeometry>
        </mxCell>
        <mxCell id="FXATQqvvRLc2y-DLK3iH-3" value="" style="edgeStyle=orthogonalEdgeStyle;rounded=0;orthogonalLoop=1;jettySize=auto;html=1;startArrow=none;startFill=0;endArrow=none;endFill=0;" edge="1" parent="1" source="FXATQqvvRLc2y-DLK3iH-6" target="FXATQqvvRLc2y-DLK3iH-47">
          <mxGeometry relative="1" as="geometry">
            <Array as="points">
              <mxPoint x="231" y="73" />
              <mxPoint x="151" y="73" />
            </Array>
          </mxGeometry>
        </mxCell>
        <mxCell id="FXATQqvvRLc2y-DLK3iH-4" style="edgeStyle=orthogonalEdgeStyle;rounded=0;orthogonalLoop=1;jettySize=auto;html=1;endArrow=none;endFill=0;" edge="1" parent="1" source="FXATQqvvRLc2y-DLK3iH-6" target="FXATQqvvRLc2y-DLK3iH-51">
          <mxGeometry relative="1" as="geometry">
            <Array as="points">
              <mxPoint x="334" y="145" />
              <mxPoint x="334" y="145" />
            </Array>
          </mxGeometry>
        </mxCell>
        <mxCell id="FXATQqvvRLc2y-DLK3iH-5" style="edgeStyle=orthogonalEdgeStyle;rounded=0;orthogonalLoop=1;jettySize=auto;html=1;exitX=0.25;exitY=0;exitDx=0;exitDy=0;entryX=0.5;entryY=1;entryDx=0;entryDy=0;endArrow=none;endFill=0;" edge="1" parent="1" source="FXATQqvvRLc2y-DLK3iH-6" target="FXATQqvvRLc2y-DLK3iH-52">
          <mxGeometry relative="1" as="geometry">
            <Array as="points">
              <mxPoint x="231" y="192" />
              <mxPoint x="73" y="192" />
            </Array>
          </mxGeometry>
        </mxCell>
        <mxCell id="FXATQqvvRLc2y-DLK3iH-6" value="&lt;font style=&quot;font-size: 30px;&quot;&gt;Tax&lt;/font&gt;" style="rounded=0;whiteSpace=wrap;html=1;fillColor=#e1d5e7;strokeColor=#9673a6;" vertex="1" parent="1">
          <mxGeometry x="177" y="150" width="216" height="69" as="geometry" />
        </mxCell>
        <mxCell id="FXATQqvvRLc2y-DLK3iH-7" value="" style="edgeStyle=orthogonalEdgeStyle;rounded=0;orthogonalLoop=1;jettySize=auto;html=1;endArrow=none;endFill=0;" edge="1" parent="1" source="FXATQqvvRLc2y-DLK3iH-13" target="FXATQqvvRLc2y-DLK3iH-46">
          <mxGeometry relative="1" as="geometry" />
        </mxCell>
        <mxCell id="FXATQqvvRLc2y-DLK3iH-8" style="edgeStyle=orthogonalEdgeStyle;rounded=0;orthogonalLoop=1;jettySize=auto;html=1;entryX=0.5;entryY=1;entryDx=0;entryDy=0;endArrow=none;endFill=0;" edge="1" parent="1" source="FXATQqvvRLc2y-DLK3iH-13" target="FXATQqvvRLc2y-DLK3iH-53">
          <mxGeometry relative="1" as="geometry">
            <mxPoint x="947.8889431423613" y="87.7778795030381" as="targetPoint" />
            <Array as="points">
              <mxPoint x="1061" y="119" />
            </Array>
          </mxGeometry>
        </mxCell>
        <mxCell id="FXATQqvvRLc2y-DLK3iH-9" style="edgeStyle=orthogonalEdgeStyle;rounded=0;orthogonalLoop=1;jettySize=auto;html=1;exitX=0.75;exitY=0;exitDx=0;exitDy=0;entryX=0;entryY=0.5;entryDx=0;entryDy=0;endArrow=none;endFill=0;" edge="1" parent="1" source="FXATQqvvRLc2y-DLK3iH-13" target="FXATQqvvRLc2y-DLK3iH-54">
          <mxGeometry relative="1" as="geometry" />
        </mxCell>
        <mxCell id="FXATQqvvRLc2y-DLK3iH-10" style="edgeStyle=orthogonalEdgeStyle;rounded=0;orthogonalLoop=1;jettySize=auto;html=1;entryX=0;entryY=0.5;entryDx=0;entryDy=0;endArrow=none;endFill=0;" edge="1" parent="1" source="FXATQqvvRLc2y-DLK3iH-13" target="FXATQqvvRLc2y-DLK3iH-55">
          <mxGeometry relative="1" as="geometry" />
        </mxCell>
        <mxCell id="FXATQqvvRLc2y-DLK3iH-11" style="edgeStyle=orthogonalEdgeStyle;rounded=0;orthogonalLoop=1;jettySize=auto;html=1;exitX=0.75;exitY=1;exitDx=0;exitDy=0;entryX=0;entryY=0.5;entryDx=0;entryDy=0;endArrow=none;endFill=0;" edge="1" parent="1" source="FXATQqvvRLc2y-DLK3iH-13" target="FXATQqvvRLc2y-DLK3iH-56">
          <mxGeometry relative="1" as="geometry" />
        </mxCell>
        <mxCell id="FXATQqvvRLc2y-DLK3iH-12" style="edgeStyle=orthogonalEdgeStyle;rounded=0;orthogonalLoop=1;jettySize=auto;html=1;exitX=0;exitY=0.5;exitDx=0;exitDy=0;startArrow=ERmany;startFill=0;endArrow=baseDash;endFill=0;" edge="1" parent="1" source="FXATQqvvRLc2y-DLK3iH-13">
          <mxGeometry relative="1" as="geometry">
            <mxPoint x="1078" y="143" as="targetPoint" />
          </mxGeometry>
        </mxCell>
        <mxCell id="FXATQqvvRLc2y-DLK3iH-13" value="&lt;font style=&quot;font-size: 30px;&quot;&gt;Tax Assessment&lt;/font&gt;" style="rounded=0;whiteSpace=wrap;html=1;fillColor=#e1d5e7;strokeColor=#9673a6;" vertex="1" parent="1">
          <mxGeometry x="1091" y="101.5" width="255" height="81.5" as="geometry" />
        </mxCell>
        <mxCell id="FXATQqvvRLc2y-DLK3iH-14" style="edgeStyle=orthogonalEdgeStyle;rounded=0;orthogonalLoop=1;jettySize=auto;html=1;entryX=0.5;entryY=1;entryDx=0;entryDy=0;endArrow=none;endFill=0;startArrow=baseDash;startFill=0;strokeWidth=2;" edge="1" parent="1" target="FXATQqvvRLc2y-DLK3iH-34">
          <mxGeometry relative="1" as="geometry">
            <mxPoint x="850" y="447" as="sourcePoint" />
            <Array as="points">
              <mxPoint x="1104" y="447" />
            </Array>
          </mxGeometry>
        </mxCell>
        <mxCell id="FXATQqvvRLc2y-DLK3iH-15" value="" style="edgeStyle=orthogonalEdgeStyle;rounded=0;orthogonalLoop=1;jettySize=auto;html=1;strokeWidth=2;endArrow=none;endFill=0;startArrow=baseDash;startFill=0;" edge="1" parent="1" target="FXATQqvvRLc2y-DLK3iH-36">
          <mxGeometry relative="1" as="geometry">
            <mxPoint x="623" y="473" as="sourcePoint" />
          </mxGeometry>
        </mxCell>
        <mxCell id="FXATQqvvRLc2y-DLK3iH-16" value="" style="edgeStyle=orthogonalEdgeStyle;rounded=0;orthogonalLoop=1;jettySize=auto;html=1;strokeWidth=2;endArrow=none;endFill=0;startArrow=baseDash;startFill=0;" edge="1" parent="1" target="FXATQqvvRLc2y-DLK3iH-43">
          <mxGeometry relative="1" as="geometry">
            <mxPoint x="850" y="459" as="sourcePoint" />
          </mxGeometry>
        </mxCell>
        <mxCell id="FXATQqvvRLc2y-DLK3iH-17" style="edgeStyle=orthogonalEdgeStyle;rounded=0;orthogonalLoop=1;jettySize=auto;html=1;exitX=0.25;exitY=0;exitDx=0;exitDy=0;entryX=0.5;entryY=1;entryDx=0;entryDy=0;endArrow=none;endFill=0;" edge="1" parent="1" source="FXATQqvvRLc2y-DLK3iH-23" target="FXATQqvvRLc2y-DLK3iH-64">
          <mxGeometry relative="1" as="geometry" />
        </mxCell>
        <mxCell id="FXATQqvvRLc2y-DLK3iH-18" style="edgeStyle=orthogonalEdgeStyle;rounded=0;orthogonalLoop=1;jettySize=auto;html=1;exitX=0.5;exitY=0;exitDx=0;exitDy=0;entryX=0.5;entryY=1;entryDx=0;entryDy=0;endArrow=none;endFill=0;" edge="1" parent="1" source="FXATQqvvRLc2y-DLK3iH-23" target="FXATQqvvRLc2y-DLK3iH-65">
          <mxGeometry relative="1" as="geometry" />
        </mxCell>
        <mxCell id="FXATQqvvRLc2y-DLK3iH-19" style="edgeStyle=orthogonalEdgeStyle;rounded=0;orthogonalLoop=1;jettySize=auto;html=1;exitX=0.25;exitY=1;exitDx=0;exitDy=0;entryX=0.5;entryY=0;entryDx=0;entryDy=0;endArrow=none;endFill=0;" edge="1" parent="1" source="FXATQqvvRLc2y-DLK3iH-23" target="FXATQqvvRLc2y-DLK3iH-66">
          <mxGeometry relative="1" as="geometry" />
        </mxCell>
        <mxCell id="FXATQqvvRLc2y-DLK3iH-20" style="edgeStyle=orthogonalEdgeStyle;rounded=0;orthogonalLoop=1;jettySize=auto;html=1;exitX=0.75;exitY=1;exitDx=0;exitDy=0;entryX=0.5;entryY=0;entryDx=0;entryDy=0;endArrow=none;endFill=0;" edge="1" parent="1" source="FXATQqvvRLc2y-DLK3iH-23" target="FXATQqvvRLc2y-DLK3iH-68">
          <mxGeometry relative="1" as="geometry">
            <Array as="points">
              <mxPoint x="792" y="514" />
              <mxPoint x="866" y="514" />
              <mxPoint x="877" y="515" />
            </Array>
          </mxGeometry>
        </mxCell>
        <mxCell id="FXATQqvvRLc2y-DLK3iH-21" style="edgeStyle=orthogonalEdgeStyle;rounded=0;orthogonalLoop=1;jettySize=auto;html=1;exitX=0.5;exitY=1;exitDx=0;exitDy=0;endArrow=none;endFill=0;" edge="1" parent="1" source="FXATQqvvRLc2y-DLK3iH-23">
          <mxGeometry relative="1" as="geometry">
            <mxPoint x="702.9999999999995" y="611" as="targetPoint" />
            <Array as="points">
              <mxPoint x="738" y="538" />
              <mxPoint x="691" y="538" />
              <mxPoint x="691" y="611" />
            </Array>
          </mxGeometry>
        </mxCell>
        <mxCell id="FXATQqvvRLc2y-DLK3iH-22" style="edgeStyle=orthogonalEdgeStyle;rounded=0;orthogonalLoop=1;jettySize=auto;html=1;exitX=0;exitY=0.25;exitDx=0;exitDy=0;endArrow=baseDash;endFill=0;startArrow=ERmany;startFill=0;" edge="1" parent="1" source="FXATQqvvRLc2y-DLK3iH-23">
          <mxGeometry relative="1" as="geometry">
            <mxPoint x="621" y="442" as="targetPoint" />
          </mxGeometry>
        </mxCell>
        <mxCell id="FXATQqvvRLc2y-DLK3iH-23" value="&lt;font style=&quot;font-size: 30px;&quot;&gt;Tax Payer&lt;/font&gt;" style="rounded=0;whiteSpace=wrap;html=1;fillColor=#e1d5e7;strokeColor=#9673a6;" vertex="1" parent="1">
          <mxGeometry x="630" y="425" width="216" height="69" as="geometry" />
        </mxCell>
        <mxCell id="FXATQqvvRLc2y-DLK3iH-24" style="edgeStyle=orthogonalEdgeStyle;rounded=0;orthogonalLoop=1;jettySize=auto;html=1;exitX=0;exitY=0.5;exitDx=0;exitDy=0;endArrow=none;endFill=0;" edge="1" parent="1" source="FXATQqvvRLc2y-DLK3iH-27" target="FXATQqvvRLc2y-DLK3iH-61">
          <mxGeometry relative="1" as="geometry" />
        </mxCell>
        <mxCell id="FXATQqvvRLc2y-DLK3iH-25" style="edgeStyle=orthogonalEdgeStyle;rounded=0;orthogonalLoop=1;jettySize=auto;html=1;exitX=0.25;exitY=1;exitDx=0;exitDy=0;entryX=1;entryY=0.5;entryDx=0;entryDy=0;endArrow=none;endFill=0;" edge="1" parent="1" source="FXATQqvvRLc2y-DLK3iH-27" target="FXATQqvvRLc2y-DLK3iH-62">
          <mxGeometry relative="1" as="geometry">
            <Array as="points">
              <mxPoint x="231" y="789" />
              <mxPoint x="177" y="789" />
              <mxPoint x="177" y="860" />
            </Array>
          </mxGeometry>
        </mxCell>
        <mxCell id="FXATQqvvRLc2y-DLK3iH-26" style="edgeStyle=orthogonalEdgeStyle;rounded=0;orthogonalLoop=1;jettySize=auto;html=1;exitX=0.5;exitY=1;exitDx=0;exitDy=0;entryX=0.5;entryY=0;entryDx=0;entryDy=0;endArrow=none;endFill=0;" edge="1" parent="1" source="FXATQqvvRLc2y-DLK3iH-27" target="FXATQqvvRLc2y-DLK3iH-63">
          <mxGeometry relative="1" as="geometry" />
        </mxCell>
        <mxCell id="FXATQqvvRLc2y-DLK3iH-27" value="&lt;font style=&quot;font-size: 30px;&quot;&gt;Tax Return&lt;/font&gt;" style="rounded=0;whiteSpace=wrap;html=1;fillColor=#e1d5e7;strokeColor=#9673a6;" vertex="1" parent="1">
          <mxGeometry x="177" y="664" width="216" height="69" as="geometry" />
        </mxCell>
        <mxCell id="FXATQqvvRLc2y-DLK3iH-28" style="edgeStyle=orthogonalEdgeStyle;rounded=0;orthogonalLoop=1;jettySize=auto;html=1;exitX=0.25;exitY=1;exitDx=0;exitDy=0;endArrow=none;endFill=0;" edge="1" parent="1" source="FXATQqvvRLc2y-DLK3iH-32" target="FXATQqvvRLc2y-DLK3iH-59">
          <mxGeometry relative="1" as="geometry" />
        </mxCell>
        <mxCell id="FXATQqvvRLc2y-DLK3iH-29" style="edgeStyle=orthogonalEdgeStyle;rounded=0;orthogonalLoop=1;jettySize=auto;html=1;entryX=0.5;entryY=0;entryDx=0;entryDy=0;endArrow=none;endFill=0;" edge="1" parent="1" source="FXATQqvvRLc2y-DLK3iH-32" target="FXATQqvvRLc2y-DLK3iH-60">
          <mxGeometry relative="1" as="geometry" />
        </mxCell>
        <mxCell id="FXATQqvvRLc2y-DLK3iH-30" style="edgeStyle=orthogonalEdgeStyle;rounded=0;orthogonalLoop=1;jettySize=auto;html=1;exitX=0.75;exitY=1;exitDx=0;exitDy=0;entryX=0.5;entryY=0;entryDx=0;entryDy=0;endArrow=none;endFill=0;" edge="1" parent="1" source="FXATQqvvRLc2y-DLK3iH-32" target="FXATQqvvRLc2y-DLK3iH-58">
          <mxGeometry relative="1" as="geometry" />
        </mxCell>
        <mxCell id="FXATQqvvRLc2y-DLK3iH-31" style="edgeStyle=orthogonalEdgeStyle;rounded=0;orthogonalLoop=1;jettySize=auto;html=1;exitX=1;exitY=0.5;exitDx=0;exitDy=0;entryX=0;entryY=0.5;entryDx=0;entryDy=0;endArrow=none;endFill=0;" edge="1" parent="1" source="FXATQqvvRLc2y-DLK3iH-32" target="FXATQqvvRLc2y-DLK3iH-57">
          <mxGeometry relative="1" as="geometry" />
        </mxCell>
        <mxCell id="FXATQqvvRLc2y-DLK3iH-32" value="&lt;span style=&quot;font-size: 30px;&quot;&gt;Payment&lt;/span&gt;" style="rounded=0;whiteSpace=wrap;html=1;fillColor=#e1d5e7;strokeColor=#9673a6;" vertex="1" parent="1">
          <mxGeometry x="979" y="664" width="216" height="69" as="geometry" />
        </mxCell>
        <mxCell id="FXATQqvvRLc2y-DLK3iH-33" style="edgeStyle=orthogonalEdgeStyle;rounded=0;orthogonalLoop=1;jettySize=auto;html=1;exitX=0.5;exitY=0;exitDx=0;exitDy=0;endArrow=none;endFill=0;strokeWidth=2;" edge="1" parent="1" source="FXATQqvvRLc2y-DLK3iH-34">
          <mxGeometry relative="1" as="geometry">
            <mxPoint x="1079" y="144" as="targetPoint" />
            <Array as="points">
              <mxPoint x="1104" y="225" />
              <mxPoint x="1065" y="225" />
              <mxPoint x="1065" y="142" />
              <mxPoint x="1079" y="142" />
            </Array>
          </mxGeometry>
        </mxCell>
        <mxCell id="FXATQqvvRLc2y-DLK3iH-34" value="&lt;font style=&quot;font-size: 20px;&quot;&gt;have&amp;nbsp;&lt;/font&gt;&lt;div style=&quot;font-size: 20px;&quot;&gt;&lt;font style=&quot;font-size: 20px;&quot;&gt;Assign&lt;/font&gt;&lt;/div&gt;" style="rhombus;whiteSpace=wrap;html=1;rounded=0;fillColor=#ffcc99;strokeColor=#36393d;" vertex="1" parent="1">
          <mxGeometry x="1012" y="267" width="183" height="113" as="geometry" />
        </mxCell>
        <mxCell id="FXATQqvvRLc2y-DLK3iH-35" style="edgeStyle=orthogonalEdgeStyle;rounded=0;orthogonalLoop=1;jettySize=auto;html=1;entryX=0.75;entryY=0;entryDx=0;entryDy=0;strokeWidth=2;endArrow=ERmany;endFill=0;" edge="1" parent="1" source="FXATQqvvRLc2y-DLK3iH-36" target="FXATQqvvRLc2y-DLK3iH-27">
          <mxGeometry relative="1" as="geometry" />
        </mxCell>
        <mxCell id="FXATQqvvRLc2y-DLK3iH-36" value="&lt;font style=&quot;font-size: 18px;&quot;&gt;Submits&lt;/font&gt;" style="rhombus;whiteSpace=wrap;html=1;rounded=0;fillColor=#ffcc99;strokeColor=#36393d;" vertex="1" parent="1">
          <mxGeometry x="366" y="515" width="103" height="101" as="geometry" />
        </mxCell>
        <mxCell id="FXATQqvvRLc2y-DLK3iH-37" style="edgeStyle=orthogonalEdgeStyle;rounded=0;orthogonalLoop=1;jettySize=auto;html=1;strokeWidth=2;endArrow=ERmany;endFill=0;" edge="1" parent="1" source="FXATQqvvRLc2y-DLK3iH-39">
          <mxGeometry relative="1" as="geometry">
            <mxPoint x="977" y="699" as="targetPoint" />
            <Array as="points">
              <mxPoint x="827" y="699" />
            </Array>
          </mxGeometry>
        </mxCell>
        <mxCell id="FXATQqvvRLc2y-DLK3iH-38" style="edgeStyle=orthogonalEdgeStyle;rounded=0;orthogonalLoop=1;jettySize=auto;html=1;entryX=1;entryY=0.5;entryDx=0;entryDy=0;strokeWidth=2;endArrow=ERoneToMany;endFill=0;" edge="1" parent="1" source="FXATQqvvRLc2y-DLK3iH-39" target="FXATQqvvRLc2y-DLK3iH-27">
          <mxGeometry relative="1" as="geometry" />
        </mxCell>
        <mxCell id="FXATQqvvRLc2y-DLK3iH-39" value="&lt;font style=&quot;font-size: 21px;&quot;&gt;Settled&lt;/font&gt;" style="rhombus;whiteSpace=wrap;html=1;rounded=0;fillColor=#ffcc99;strokeColor=#36393d;" vertex="1" parent="1">
          <mxGeometry x="635" y="745" width="113" height="93" as="geometry" />
        </mxCell>
        <mxCell id="FXATQqvvRLc2y-DLK3iH-40" style="edgeStyle=orthogonalEdgeStyle;rounded=0;orthogonalLoop=1;jettySize=auto;html=1;endArrow=ERoneToMany;endFill=0;strokeWidth=2;" edge="1" parent="1" source="FXATQqvvRLc2y-DLK3iH-41">
          <mxGeometry relative="1" as="geometry">
            <mxPoint x="285" y="662.8461350661057" as="targetPoint" />
          </mxGeometry>
        </mxCell>
        <mxCell id="FXATQqvvRLc2y-DLK3iH-41" value="&lt;font style=&quot;font-size: 18px;&quot;&gt;Associated&lt;/font&gt;&lt;div style=&quot;font-size: 18px;&quot;&gt;&lt;font style=&quot;font-size: 18px;&quot;&gt;&amp;nbsp;with&lt;/font&gt;&lt;/div&gt;" style="rhombus;whiteSpace=wrap;html=1;rounded=0;fillColor=#ffcc99;strokeColor=#36393d;" vertex="1" parent="1">
          <mxGeometry x="210.75" y="357" width="148.5" height="127" as="geometry" />
        </mxCell>
        <mxCell id="FXATQqvvRLc2y-DLK3iH-42" style="edgeStyle=orthogonalEdgeStyle;rounded=0;orthogonalLoop=1;jettySize=auto;html=1;entryX=0.25;entryY=0;entryDx=0;entryDy=0;endArrow=ERoneToMany;endFill=0;strokeWidth=2;" edge="1" parent="1" source="FXATQqvvRLc2y-DLK3iH-43" target="FXATQqvvRLc2y-DLK3iH-32">
          <mxGeometry relative="1" as="geometry">
            <Array as="points">
              <mxPoint x="1033" y="592" />
            </Array>
          </mxGeometry>
        </mxCell>
        <mxCell id="FXATQqvvRLc2y-DLK3iH-43" value="&lt;font style=&quot;font-size: 21px;&quot;&gt;Pays&lt;/font&gt;" style="rhombus;whiteSpace=wrap;html=1;rounded=0;fillColor=#ffcc99;strokeColor=#36393d;" vertex="1" parent="1">
          <mxGeometry x="1051.5" y="554" width="145" height="80" as="geometry" />
        </mxCell>
        <mxCell id="FXATQqvvRLc2y-DLK3iH-44" style="edgeStyle=orthogonalEdgeStyle;rounded=0;orthogonalLoop=1;jettySize=auto;html=1;exitX=0.5;exitY=1;exitDx=0;exitDy=0;endArrow=none;endFill=0;strokeWidth=2;" edge="1" parent="1" source="FXATQqvvRLc2y-DLK3iH-45">
          <mxGeometry relative="1" as="geometry">
            <mxPoint x="618" y="443" as="targetPoint" />
            <Array as="points">
              <mxPoint x="455" y="443" />
            </Array>
          </mxGeometry>
        </mxCell>
        <mxCell id="FXATQqvvRLc2y-DLK3iH-45" value="&lt;font style=&quot;font-size: 18px;&quot;&gt;Applied to&lt;/font&gt;" style="rhombus;whiteSpace=wrap;html=1;rounded=0;fillColor=#ffcc99;strokeColor=#36393d;" vertex="1" parent="1">
          <mxGeometry x="399" y="239" width="112" height="80" as="geometry" />
        </mxCell>
        <mxCell id="FXATQqvvRLc2y-DLK3iH-46" value="&lt;font style=&quot;font-size: 20px;&quot;&gt;Assessment Amount&lt;/font&gt;" style="ellipse;whiteSpace=wrap;html=1;rounded=0;fillColor=#dae8fc;gradientColor=#7ea6e0;strokeColor=#6c8ebf;" vertex="1" parent="1">
          <mxGeometry x="1140.25" y="-152" width="156.5" height="72" as="geometry" />
        </mxCell>
        <mxCell id="FXATQqvvRLc2y-DLK3iH-47" value="&lt;font style=&quot;font-size: 20px;&quot;&gt;&lt;u&gt;Tax_ID&lt;/u&gt;&lt;/font&gt;" style="ellipse;whiteSpace=wrap;html=1;rounded=0;fillColor=#fad9d5;strokeColor=#ae4132;" vertex="1" parent="1">
          <mxGeometry x="90.75" y="-63.25" width="120" height="58.5" as="geometry" />
        </mxCell>
        <mxCell id="FXATQqvvRLc2y-DLK3iH-48" style="edgeStyle=orthogonalEdgeStyle;rounded=0;orthogonalLoop=1;jettySize=auto;html=1;exitX=0.5;exitY=0;exitDx=0;exitDy=0;entryX=0.5;entryY=1;entryDx=0;entryDy=0;endArrow=none;endFill=0;" edge="1" parent="1" source="FXATQqvvRLc2y-DLK3iH-51" target="FXATQqvvRLc2y-DLK3iH-80">
          <mxGeometry relative="1" as="geometry" />
        </mxCell>
        <mxCell id="FXATQqvvRLc2y-DLK3iH-49" style="edgeStyle=orthogonalEdgeStyle;rounded=0;orthogonalLoop=1;jettySize=auto;html=1;exitX=1;exitY=0;exitDx=0;exitDy=0;entryX=0;entryY=0.5;entryDx=0;entryDy=0;endArrow=none;endFill=0;" edge="1" parent="1" source="FXATQqvvRLc2y-DLK3iH-51" target="FXATQqvvRLc2y-DLK3iH-82">
          <mxGeometry relative="1" as="geometry" />
        </mxCell>
        <mxCell id="FXATQqvvRLc2y-DLK3iH-50" style="edgeStyle=orthogonalEdgeStyle;rounded=0;orthogonalLoop=1;jettySize=auto;html=1;entryX=0.5;entryY=1;entryDx=0;entryDy=0;endArrow=none;endFill=0;" edge="1" parent="1" source="FXATQqvvRLc2y-DLK3iH-51" target="FXATQqvvRLc2y-DLK3iH-81">
          <mxGeometry relative="1" as="geometry" />
        </mxCell>
        <mxCell id="FXATQqvvRLc2y-DLK3iH-51" value="&lt;font style=&quot;font-size: 20px;&quot;&gt;Tax_Name&lt;/font&gt;" style="ellipse;whiteSpace=wrap;html=1;fillColor=#dae8fc;gradientColor=#7ea6e0;strokeColor=#6c8ebf;" vertex="1" parent="1">
          <mxGeometry x="258" y="-54" width="117" height="67" as="geometry" />
        </mxCell>
        <mxCell id="FXATQqvvRLc2y-DLK3iH-52" value="&lt;font style=&quot;font-size: 20px;&quot;&gt;Tax_Rate&lt;/font&gt;" style="ellipse;whiteSpace=wrap;html=1;fillColor=#dae8fc;gradientColor=#7ea6e0;strokeColor=#6c8ebf;" vertex="1" parent="1">
          <mxGeometry x="14" y="104.5" width="117" height="67" as="geometry" />
        </mxCell>
        <mxCell id="FXATQqvvRLc2y-DLK3iH-53" value="&lt;font style=&quot;font-size: 20px;&quot;&gt;&lt;u&gt;Taxpayer_ID&lt;/u&gt;&lt;/font&gt;" style="ellipse;whiteSpace=wrap;html=1;fillColor=#fad9d5;strokeColor=#ae4132;" vertex="1" parent="1">
          <mxGeometry x="994" y="-54" width="133" height="83" as="geometry" />
        </mxCell>
        <mxCell id="FXATQqvvRLc2y-DLK3iH-54" value="&lt;font style=&quot;font-size: 20px;&quot;&gt;Assessment&lt;/font&gt;&lt;div&gt;&lt;font style=&quot;font-size: 20px;&quot;&gt;Date&lt;/font&gt;&lt;/div&gt;" style="ellipse;whiteSpace=wrap;html=1;fillColor=#dae8fc;gradientColor=#7ea6e0;strokeColor=#6c8ebf;" vertex="1" parent="1">
          <mxGeometry x="1365" y="-76" width="134" height="84" as="geometry" />
        </mxCell>
        <mxCell id="FXATQqvvRLc2y-DLK3iH-55" value="&lt;font style=&quot;font-size: 20px;&quot;&gt;&lt;u&gt;Tax_ID&lt;/u&gt;&lt;/font&gt;" style="ellipse;whiteSpace=wrap;html=1;rounded=0;fillColor=#fad9d5;strokeColor=#ae4132;" vertex="1" parent="1">
          <mxGeometry x="1474" y="113" width="120" height="58.5" as="geometry" />
        </mxCell>
        <mxCell id="FXATQqvvRLc2y-DLK3iH-56" value="&lt;font style=&quot;font-size: 20px;&quot;&gt;Due_Date&lt;/font&gt;" style="ellipse;whiteSpace=wrap;html=1;fillColor=#dae8fc;gradientColor=#7ea6e0;strokeColor=#6c8ebf;" vertex="1" parent="1">
          <mxGeometry x="1386" y="245.5" width="117" height="67" as="geometry" />
        </mxCell>
        <mxCell id="FXATQqvvRLc2y-DLK3iH-57" value="&lt;font style=&quot;font-size: 20px;&quot;&gt;&lt;u&gt;Payment_ID&lt;/u&gt;&lt;/font&gt;" style="ellipse;whiteSpace=wrap;html=1;fillColor=#fad9d5;strokeColor=#ae4132;" vertex="1" parent="1">
          <mxGeometry x="1334" y="657" width="133" height="83" as="geometry" />
        </mxCell>
        <mxCell id="FXATQqvvRLc2y-DLK3iH-58" value="&lt;font style=&quot;font-size: 20px;&quot;&gt;Payment Method&lt;/font&gt;" style="ellipse;whiteSpace=wrap;html=1;fillColor=#dae8fc;gradientColor=#7ea6e0;strokeColor=#6c8ebf;" vertex="1" parent="1">
          <mxGeometry x="1291" y="861" width="117" height="67" as="geometry" />
        </mxCell>
        <mxCell id="FXATQqvvRLc2y-DLK3iH-59" value="&lt;font style=&quot;font-size: 20px;&quot;&gt;&lt;u&gt;Transaction_ID&lt;/u&gt;&lt;/font&gt;" style="ellipse;whiteSpace=wrap;html=1;fillColor=#fad9d5;strokeColor=#ae4132;" vertex="1" parent="1">
          <mxGeometry x="857" y="805" width="157.5" height="93" as="geometry" />
        </mxCell>
        <mxCell id="FXATQqvvRLc2y-DLK3iH-60" value="&lt;font style=&quot;font-size: 20px;&quot;&gt;Payment Date&lt;/font&gt;" style="ellipse;whiteSpace=wrap;html=1;fillColor=#dae8fc;gradientColor=#7ea6e0;strokeColor=#6c8ebf;" vertex="1" parent="1">
          <mxGeometry x="1106" y="902" width="117" height="67" as="geometry" />
        </mxCell>
        <mxCell id="FXATQqvvRLc2y-DLK3iH-61" value="&lt;font style=&quot;font-size: 20px;&quot;&gt;&lt;u&gt;TaxPayer_ID&lt;/u&gt;&lt;/font&gt;" style="ellipse;whiteSpace=wrap;html=1;fillColor=#fad9d5;strokeColor=#ae4132;" vertex="1" parent="1">
          <mxGeometry x="-92" y="652" width="157.5" height="93" as="geometry" />
        </mxCell>
        <mxCell id="FXATQqvvRLc2y-DLK3iH-62" value="&lt;font style=&quot;font-size: 20px;&quot;&gt;&lt;u&gt;Tax_ID&lt;/u&gt;&lt;/font&gt;" style="ellipse;whiteSpace=wrap;html=1;rounded=0;fillColor=#fad9d5;strokeColor=#ae4132;" vertex="1" parent="1">
          <mxGeometry x="-22" y="831" width="120" height="58.5" as="geometry" />
        </mxCell>
        <mxCell id="FXATQqvvRLc2y-DLK3iH-63" value="&lt;font style=&quot;font-size: 20px;&quot;&gt;Return Date&lt;/font&gt;" style="ellipse;whiteSpace=wrap;html=1;fillColor=#dae8fc;gradientColor=#7ea6e0;strokeColor=#6c8ebf;" vertex="1" parent="1">
          <mxGeometry x="210.25" y="875" width="149" height="79" as="geometry" />
        </mxCell>
        <mxCell id="FXATQqvvRLc2y-DLK3iH-64" value="&lt;font style=&quot;font-size: 20px;&quot;&gt;&lt;u&gt;TaxPayer_ID&lt;/u&gt;&lt;/font&gt;" style="ellipse;whiteSpace=wrap;html=1;rounded=0;fillColor=#fad9d5;strokeColor=#ae4132;" vertex="1" parent="1">
          <mxGeometry x="527" y="312.5" width="141" height="72" as="geometry" />
        </mxCell>
        <mxCell id="FXATQqvvRLc2y-DLK3iH-65" value="&lt;font style=&quot;font-size: 20px;&quot;&gt;Name&lt;/font&gt;" style="ellipse;whiteSpace=wrap;html=1;rounded=0;fillColor=#dae8fc;strokeColor=#6c8ebf;gradientColor=#7ea6e0;" vertex="1" parent="1">
          <mxGeometry x="689" y="227" width="120" height="58.5" as="geometry" />
        </mxCell>
        <mxCell id="FXATQqvvRLc2y-DLK3iH-66" value="&lt;font style=&quot;font-size: 20px;&quot;&gt;Address&lt;/font&gt;" style="ellipse;whiteSpace=wrap;html=1;rounded=0;fillColor=#dae8fc;gradientColor=#7ea6e0;strokeColor=#6c8ebf;" vertex="1" parent="1">
          <mxGeometry x="563" y="536.25" width="120" height="58.5" as="geometry" />
        </mxCell>
        <mxCell id="FXATQqvvRLc2y-DLK3iH-67" value="&lt;font style=&quot;font-size: 20px;&quot;&gt;&lt;u&gt;Email&lt;/u&gt;&lt;/font&gt;" style="ellipse;whiteSpace=wrap;html=1;rounded=0;fillColor=#fad9d5;strokeColor=#ae4132;" vertex="1" parent="1">
          <mxGeometry x="875.75" y="321.5" width="120" height="58.5" as="geometry" />
        </mxCell>
        <mxCell id="FXATQqvvRLc2y-DLK3iH-68" value="&lt;font style=&quot;font-size: 20px;&quot;&gt;Date of Birth&lt;/font&gt;" style="ellipse;whiteSpace=wrap;html=1;rounded=0;fillColor=#dae8fc;gradientColor=#7ea6e0;strokeColor=#6c8ebf;" vertex="1" parent="1">
          <mxGeometry x="817" y="531" width="120" height="58.5" as="geometry" />
        </mxCell>
        <mxCell id="FXATQqvvRLc2y-DLK3iH-69" style="edgeStyle=orthogonalEdgeStyle;rounded=0;orthogonalLoop=1;jettySize=auto;html=1;exitX=0.75;exitY=0;exitDx=0;exitDy=0;entryX=0.385;entryY=0.977;entryDx=0;entryDy=0;entryPerimeter=0;endArrow=none;endFill=0;" edge="1" parent="1" source="FXATQqvvRLc2y-DLK3iH-23" target="FXATQqvvRLc2y-DLK3iH-67">
          <mxGeometry relative="1" as="geometry" />
        </mxCell>
        <mxCell id="FXATQqvvRLc2y-DLK3iH-70" value="&lt;font style=&quot;font-size: 20px;&quot;&gt;First_Name&lt;/font&gt;" style="ellipse;whiteSpace=wrap;html=1;rounded=0;fillColor=#f5f5f5;fontColor=#333333;strokeColor=#666666;" vertex="1" parent="1">
          <mxGeometry x="603" y="121" width="120" height="58.5" as="geometry" />
        </mxCell>
        <mxCell id="FXATQqvvRLc2y-DLK3iH-71" value="&lt;font style=&quot;font-size: 20px;&quot;&gt;Last_Name&lt;/font&gt;" style="ellipse;whiteSpace=wrap;html=1;rounded=0;fillColor=#f5f5f5;fontColor=#333333;strokeColor=#666666;" vertex="1" parent="1">
          <mxGeometry x="798" y="121" width="120" height="58.5" as="geometry" />
        </mxCell>
        <mxCell id="FXATQqvvRLc2y-DLK3iH-72" style="edgeStyle=orthogonalEdgeStyle;rounded=0;orthogonalLoop=1;jettySize=auto;html=1;entryX=0.771;entryY=0.051;entryDx=0;entryDy=0;entryPerimeter=0;endArrow=none;endFill=0;" edge="1" parent="1" source="FXATQqvvRLc2y-DLK3iH-71" target="FXATQqvvRLc2y-DLK3iH-65">
          <mxGeometry relative="1" as="geometry" />
        </mxCell>
        <mxCell id="FXATQqvvRLc2y-DLK3iH-73" style="edgeStyle=orthogonalEdgeStyle;rounded=0;orthogonalLoop=1;jettySize=auto;html=1;exitX=0.5;exitY=1;exitDx=0;exitDy=0;entryX=0.358;entryY=0.048;entryDx=0;entryDy=0;entryPerimeter=0;endArrow=none;endFill=0;" edge="1" parent="1" source="FXATQqvvRLc2y-DLK3iH-70" target="FXATQqvvRLc2y-DLK3iH-65">
          <mxGeometry relative="1" as="geometry" />
        </mxCell>
        <mxCell id="FXATQqvvRLc2y-DLK3iH-74" style="edgeStyle=orthogonalEdgeStyle;rounded=0;orthogonalLoop=1;jettySize=auto;html=1;exitX=0;exitY=0.5;exitDx=0;exitDy=0;endArrow=none;endFill=0;" edge="1" parent="1" source="FXATQqvvRLc2y-DLK3iH-75" target="FXATQqvvRLc2y-DLK3iH-58">
          <mxGeometry relative="1" as="geometry" />
        </mxCell>
        <mxCell id="FXATQqvvRLc2y-DLK3iH-75" value="&lt;font style=&quot;font-size: 20px;&quot;&gt;Cheque&lt;/font&gt;" style="ellipse;whiteSpace=wrap;html=1;rounded=0;fillColor=#f5f5f5;fontColor=#333333;strokeColor=#666666;" vertex="1" parent="1">
          <mxGeometry x="1467" y="865.25" width="120" height="58.5" as="geometry" />
        </mxCell>
        <mxCell id="FXATQqvvRLc2y-DLK3iH-76" style="edgeStyle=orthogonalEdgeStyle;rounded=0;orthogonalLoop=1;jettySize=auto;html=1;entryX=1;entryY=1;entryDx=0;entryDy=0;endArrow=none;endFill=0;" edge="1" parent="1" source="FXATQqvvRLc2y-DLK3iH-77" target="FXATQqvvRLc2y-DLK3iH-58">
          <mxGeometry relative="1" as="geometry">
            <Array as="points">
              <mxPoint x="1419" y="1010" />
              <mxPoint x="1419" y="958" />
              <mxPoint x="1391" y="958" />
            </Array>
          </mxGeometry>
        </mxCell>
        <mxCell id="FXATQqvvRLc2y-DLK3iH-77" value="&lt;font style=&quot;font-size: 20px;&quot;&gt;Credit/Debit Card&lt;/font&gt;" style="ellipse;whiteSpace=wrap;html=1;rounded=0;fillColor=#f5f5f5;fontColor=#333333;strokeColor=#666666;" vertex="1" parent="1">
          <mxGeometry x="1435" y="972" width="145" height="75.5" as="geometry" />
        </mxCell>
        <mxCell id="FXATQqvvRLc2y-DLK3iH-78" style="edgeStyle=orthogonalEdgeStyle;rounded=0;orthogonalLoop=1;jettySize=auto;html=1;entryX=0.5;entryY=1;entryDx=0;entryDy=0;endArrow=none;endFill=0;" edge="1" parent="1" source="FXATQqvvRLc2y-DLK3iH-79" target="FXATQqvvRLc2y-DLK3iH-58">
          <mxGeometry relative="1" as="geometry" />
        </mxCell>
        <mxCell id="FXATQqvvRLc2y-DLK3iH-79" value="&lt;font style=&quot;font-size: 20px;&quot;&gt;UPI&lt;/font&gt;" style="ellipse;whiteSpace=wrap;html=1;rounded=0;fillColor=#f5f5f5;fontColor=#333333;strokeColor=#666666;" vertex="1" parent="1">
          <mxGeometry x="1276" y="989" width="120" height="58.5" as="geometry" />
        </mxCell>
        <mxCell id="FXATQqvvRLc2y-DLK3iH-80" value="&lt;font style=&quot;font-size: 20px;&quot;&gt;Income_Tax&lt;/font&gt;" style="ellipse;whiteSpace=wrap;html=1;rounded=0;fillColor=#f5f5f5;fontColor=#333333;strokeColor=#666666;" vertex="1" parent="1">
          <mxGeometry x="256.5" y="-195" width="120" height="58.5" as="geometry" />
        </mxCell>
        <mxCell id="FXATQqvvRLc2y-DLK3iH-81" value="&lt;font style=&quot;font-size: 18px;&quot;&gt;Sales_Tax&lt;/font&gt;" style="ellipse;whiteSpace=wrap;html=1;rounded=0;fillColor=#f5f5f5;fontColor=#333333;strokeColor=#666666;" vertex="1" parent="1">
          <mxGeometry x="461" y="-15" width="120" height="58.5" as="geometry" />
        </mxCell>
        <mxCell id="FXATQqvvRLc2y-DLK3iH-82" value="&lt;font style=&quot;font-size: 18px;&quot;&gt;Service_Tax&lt;/font&gt;" style="ellipse;whiteSpace=wrap;html=1;rounded=0;fillColor=#f5f5f5;fontColor=#333333;strokeColor=#666666;" vertex="1" parent="1">
          <mxGeometry x="454" y="-162" width="120" height="58.5" as="geometry" />
        </mxCell>
        <mxCell id="FXATQqvvRLc2y-DLK3iH-83" value="&lt;font style=&quot;font-size: 22px;&quot;&gt;Age&lt;/font&gt;" style="ellipse;whiteSpace=wrap;html=1;fillColor=#dae8fc;strokeColor=#6c8ebf;dashed=1;dashPattern=12 12;strokeWidth=2;" vertex="1" parent="1">
          <mxGeometry x="708" y="584" width="125" height="60" as="geometry" />
        </mxCell>
        <mxCell id="FXATQqvvRLc2y-DLK3iH-84" value="&lt;font style=&quot;font-size: 35px;&quot;&gt;ER Diagram for Government Tax filling Service&lt;/font&gt;" style="rounded=1;whiteSpace=wrap;html=1;" vertex="1" parent="1">
          <mxGeometry x="412" y="-298" width="819.25" height="60" as="geometry" />
        </mxCell>
      </root>
    </mxGraphModel>
  </diagram>
</mxfile>
